<svg id="visual" viewBox="0 0 1900 1080" width="1900" height="1080" xmlns="http://www.w3.org/2000/svg" xmlns:xlink="http://www.w3.org/1999/xlink" version="1.1"><path d="M0 336L28.8 327C57.7 318 115.3 300 172.8 312.5C230.3 325 287.7 368 345.2 387.8C402.7 407.7 460.3 404.3 518 408C575.7 411.7 633.3 422.3 691 431.3C748.7 440.3 806.3 447.7 863.8 429.7C921.3 411.7 978.7 368.3 1036.2 359.3C1093.7 350.3 1151.3 375.7 1209 370.3C1266.7 365 1324.3 329 1382 305.5C1439.7 282 1497.3 271 1554.8 292.5C1612.3 314 1669.7 368 1727.2 371.7C1784.7 375.3 1842.3 328.7 1871.2 305.3L1900 282L1900 0L1871.2 0C1842.3 0 1784.7 0 1727.2 0C1669.7 0 1612.3 0 1554.8 0C1497.3 0 1439.7 0 1382 0C1324.3 0 1266.7 0 1209 0C1151.3 0 1093.7 0 1036.2 0C978.7 0 921.3 0 863.8 0C806.3 0 748.7 0 691 0C633.3 0 575.7 0 518 0C460.3 0 402.7 0 345.2 0C287.7 0 230.3 0 172.8 0C115.3 0 57.7 0 28.8 0L0 0Z" fill="#f0f2f5"></path><path d="M0 509L28.8 510.7C57.7 512.3 115.3 515.7 172.8 528.2C230.3 540.7 287.7 562.3 345.2 571.3C402.7 580.3 460.3 576.7 518 578.5C575.7 580.3 633.3 587.7 691 596.7C748.7 605.7 806.3 616.3 863.8 607.3C921.3 598.3 978.7 569.7 1036.2 559C1093.7 548.3 1151.3 555.7 1209 539.5C1266.7 523.3 1324.3 483.7 1382 469.2C1439.7 454.7 1497.3 465.3 1554.8 499.5C1612.3 533.7 1669.7 591.3 1727.2 593.2C1784.7 595 1842.3 541 1871.2 514L1900 487L1900 280L1871.2 303.3C1842.3 326.7 1784.7 373.3 1727.2 369.7C1669.7 366 1612.3 312 1554.8 290.5C1497.3 269 1439.7 280 1382 303.5C1324.3 327 1266.7 363 1209 368.3C1151.3 373.7 1093.7 348.3 1036.2 357.3C978.7 366.3 921.3 409.7 863.8 427.7C806.3 445.7 748.7 438.3 691 429.3C633.3 420.3 575.7 409.7 518 406C460.3 402.3 402.7 405.7 345.2 385.8C287.7 366 230.3 323 172.8 310.5C115.3 298 57.7 316 28.8 325L0 334Z" fill="#b0ccda"></path><path d="M0 725L28.8 714.2C57.7 703.3 115.3 681.7 172.8 687C230.3 692.3 287.7 724.7 345.2 733.7C402.7 742.7 460.3 728.3 518 733.7C575.7 739 633.3 764 691 778.3C748.7 792.7 806.3 796.3 863.8 791C921.3 785.7 978.7 771.3 1036.2 760.5C1093.7 749.7 1151.3 742.3 1209 724.3C1266.7 706.3 1324.3 677.7 1382 667C1439.7 656.3 1497.3 663.7 1554.8 699.7C1612.3 735.7 1669.7 800.3 1727.2 789.5C1784.7 778.7 1842.3 692.3 1871.2 649.2L1900 606L1900 485L1871.2 512C1842.3 539 1784.7 593 1727.2 591.2C1669.7 589.3 1612.3 531.7 1554.8 497.5C1497.3 463.3 1439.7 452.7 1382 467.2C1324.3 481.7 1266.7 521.3 1209 537.5C1151.3 553.7 1093.7 546.3 1036.2 557C978.7 567.7 921.3 596.3 863.8 605.3C806.3 614.3 748.7 603.7 691 594.7C633.3 585.7 575.7 578.3 518 576.5C460.3 574.7 402.7 578.3 345.2 569.3C287.7 560.3 230.3 538.7 172.8 526.2C115.3 513.7 57.7 510.3 28.8 508.7L0 507Z" fill="#66aab0"></path><path d="M0 1081L28.8 1081C57.7 1081 115.3 1081 172.8 1081C230.3 1081 287.7 1081 345.2 1081C402.7 1081 460.3 1081 518 1081C575.7 1081 633.3 1081 691 1081C748.7 1081 806.3 1081 863.8 1081C921.3 1081 978.7 1081 1036.2 1081C1093.7 1081 1151.3 1081 1209 1081C1266.7 1081 1324.3 1081 1382 1081C1439.7 1081 1497.3 1081 1554.8 1081C1612.3 1081 1669.7 1081 1727.2 1081C1784.7 1081 1842.3 1081 1871.2 1081L1900 1081L1900 604L1871.2 647.2C1842.3 690.3 1784.7 776.7 1727.2 787.5C1669.7 798.3 1612.3 733.7 1554.8 697.7C1497.3 661.7 1439.7 654.3 1382 665C1324.3 675.7 1266.7 704.3 1209 722.3C1151.3 740.3 1093.7 747.7 1036.2 758.5C978.7 769.3 921.3 783.7 863.8 789C806.3 794.3 748.7 790.7 691 776.3C633.3 762 575.7 737 518 731.7C460.3 726.3 402.7 740.7 345.2 731.7C287.7 722.7 230.3 690.3 172.8 685C115.3 679.7 57.7 701.3 28.8 712.2L0 723Z" fill="#1f8675"></path></svg>