<svg id="visual" viewBox="0 0 2000 2000" width="2000" height="2000" xmlns="http://www.w3.org/2000/svg" xmlns:xlink="http://www.w3.org/1999/xlink" version="1.1"><rect x="0" y="0" width="2000" height="2000" fill="#ecdfdf"></rect><path d="M0 921L286 1226L571 971L857 888L1143 879L1429 1097L1714 1128L2000 1225L2000 0L1714 0L1429 0L1143 0L857 0L571 0L286 0L0 0Z" fill="#b84072"></path><path d="M0 898L286 912L571 822L857 824L1143 1049L1429 921L1714 1056L2000 931L2000 0L1714 0L1429 0L1143 0L857 0L571 0L286 0L0 0Z" fill="#a03173"></path><path d="M0 907L286 893L571 942L857 761L1143 619L1429 570L1714 801L2000 928L2000 0L1714 0L1429 0L1143 0L857 0L571 0L286 0L0 0Z" fill="#852673"></path><path d="M0 645L286 613L571 409L857 522L1143 410L1429 595L1714 556L2000 534L2000 0L1714 0L1429 0L1143 0L857 0L571 0L286 0L0 0Z" fill="#671f71"></path><path d="M0 376L286 301L571 310L857 468L1143 367L1429 527L1714 404L2000 371L2000 0L1714 0L1429 0L1143 0L857 0L571 0L286 0L0 0Z" fill="#441b6e"></path><path d="M0 260L286 245L571 317L857 256L1143 192L1429 311L1714 320L2000 260L2000 0L1714 0L1429 0L1143 0L857 0L571 0L286 0L0 0Z" fill="#111868"></path></svg>