<svg id="visual" viewBox="0 0 500 500" width="500" height="500" xmlns="http://www.w3.org/2000/svg" xmlns:xlink="http://www.w3.org/1999/xlink" version="1.1"><rect x="0" y="0" width="500" height="500" fill="#14393b"></rect><defs><linearGradient id="grad1_0" x1="0%" y1="0%" x2="100%" y2="100%"><stop offset="30%" stop-color="#cccccc" stop-opacity="1"></stop><stop offset="70%" stop-color="#cccccc" stop-opacity="1"></stop></linearGradient></defs><defs><linearGradient id="grad1_1" x1="0%" y1="0%" x2="100%" y2="100%"><stop offset="30%" stop-color="#cccccc" stop-opacity="1"></stop><stop offset="70%" stop-color="#a5acad" stop-opacity="1"></stop></linearGradient></defs><defs><linearGradient id="grad1_2" x1="0%" y1="0%" x2="100%" y2="100%"><stop offset="30%" stop-color="#808e8e" stop-opacity="1"></stop><stop offset="70%" stop-color="#a5acad" stop-opacity="1"></stop></linearGradient></defs><defs><linearGradient id="grad1_3" x1="0%" y1="0%" x2="100%" y2="100%"><stop offset="30%" stop-color="#808e8e" stop-opacity="1"></stop><stop offset="70%" stop-color="#5b7071" stop-opacity="1"></stop></linearGradient></defs><defs><linearGradient id="grad1_4" x1="0%" y1="0%" x2="100%" y2="100%"><stop offset="30%" stop-color="#385455" stop-opacity="1"></stop><stop offset="70%" stop-color="#5b7071" stop-opacity="1"></stop></linearGradient></defs><defs><linearGradient id="grad1_5" x1="0%" y1="0%" x2="100%" y2="100%"><stop offset="30%" stop-color="#385455" stop-opacity="1"></stop><stop offset="70%" stop-color="#14393b" stop-opacity="1"></stop></linearGradient></defs><defs><linearGradient id="grad2_0" x1="0%" y1="0%" x2="100%" y2="100%"><stop offset="30%" stop-color="#cccccc" stop-opacity="1"></stop><stop offset="70%" stop-color="#cccccc" stop-opacity="1"></stop></linearGradient></defs><defs><linearGradient id="grad2_1" x1="0%" y1="0%" x2="100%" y2="100%"><stop offset="30%" stop-color="#a5acad" stop-opacity="1"></stop><stop offset="70%" stop-color="#cccccc" stop-opacity="1"></stop></linearGradient></defs><defs><linearGradient id="grad2_2" x1="0%" y1="0%" x2="100%" y2="100%"><stop offset="30%" stop-color="#a5acad" stop-opacity="1"></stop><stop offset="70%" stop-color="#808e8e" stop-opacity="1"></stop></linearGradient></defs><defs><linearGradient id="grad2_3" x1="0%" y1="0%" x2="100%" y2="100%"><stop offset="30%" stop-color="#5b7071" stop-opacity="1"></stop><stop offset="70%" stop-color="#808e8e" stop-opacity="1"></stop></linearGradient></defs><defs><linearGradient id="grad2_4" x1="0%" y1="0%" x2="100%" y2="100%"><stop offset="30%" stop-color="#5b7071" stop-opacity="1"></stop><stop offset="70%" stop-color="#385455" stop-opacity="1"></stop></linearGradient></defs><defs><linearGradient id="grad2_5" x1="0%" y1="0%" x2="100%" y2="100%"><stop offset="30%" stop-color="#14393b" stop-opacity="1"></stop><stop offset="70%" stop-color="#385455" stop-opacity="1"></stop></linearGradient></defs><g transform="translate(500, 0)"><path d="M0 335.9C-24.3 330.2 -48.6 324.6 -72.8 318.8C-96.9 313 -120.8 307.1 -143.2 297.3C-165.6 287.5 -186.4 273.8 -206.4 258.8C-226.3 243.7 -245.3 227.3 -261.1 208.2C-277 189.2 -289.7 167.5 -300.9 144.9C-312.1 122.4 -321.9 99 -327.5 74.7C-333 50.5 -334.5 25.2 -335.9 0L0 0Z" fill="#274648"></path><path d="M0 279.9C-20.3 275.2 -40.5 270.5 -60.6 265.7C-80.7 260.9 -100.7 255.9 -119.3 247.8C-138 239.6 -155.4 228.2 -172 215.7C-188.6 203.1 -204.4 189.4 -217.6 173.5C-230.8 157.6 -241.4 139.5 -250.8 120.8C-260.1 102 -268.2 82.5 -272.9 62.3C-277.5 42 -278.7 21 -279.9 0L0 0Z" fill="#4a6263"></path><path d="M0 223.9C-16.2 220.2 -32.4 216.4 -48.5 212.5C-64.6 208.7 -80.5 204.7 -95.5 198.2C-110.4 191.7 -124.3 182.6 -137.6 172.5C-150.9 162.5 -163.5 151.5 -174.1 138.8C-184.7 126.1 -193.1 111.6 -200.6 96.6C-208.1 81.6 -214.6 66 -218.3 49.8C-222 33.6 -223 16.8 -223.9 0L0 0Z" fill="#6d7f80"></path><path d="M0 167.9C-12.2 165.1 -24.3 162.3 -36.4 159.4C-48.4 156.5 -60.4 153.6 -71.6 148.7C-82.8 143.8 -93.2 136.9 -103.2 129.4C-113.2 121.9 -122.6 113.7 -130.6 104.1C-138.5 94.6 -144.8 83.7 -150.5 72.5C-156.1 61.2 -160.9 49.5 -163.7 37.4C-166.5 25.2 -167.2 12.6 -167.9 0L0 0Z" fill="#929d9d"></path><path d="M0 112C-8.1 110.1 -16.2 108.2 -24.3 106.3C-32.3 104.3 -40.3 102.4 -47.7 99.1C-55.2 95.8 -62.1 91.3 -68.8 86.3C-75.4 81.2 -81.8 75.8 -87 69.4C-92.3 63.1 -96.6 55.8 -100.3 48.3C-104 40.8 -107.3 33 -109.2 24.9C-111 16.8 -111.5 8.4 -112 0L0 0Z" fill="#b8bcbc"></path><path d="M0 56C-4.1 55 -8.1 54.1 -12.1 53.1C-16.1 52.2 -20.1 51.2 -23.9 49.6C-27.6 47.9 -31.1 45.6 -34.4 43.1C-37.7 40.6 -40.9 37.9 -43.5 34.7C-46.2 31.5 -48.3 27.9 -50.2 24.2C-52 20.4 -53.6 16.5 -54.6 12.5C-55.5 8.4 -55.7 4.2 -56 0L0 0Z" fill="#cccccc"></path></g><g transform="translate(0, 500)"><path d="M0 -335.9C23.3 -326.1 46.7 -316.4 71.2 -312C95.7 -307.5 121.4 -308.4 144.9 -300.9C168.4 -293.5 189.7 -277.8 207.6 -260.3C225.6 -242.9 240.3 -223.8 257.2 -205.1C274.2 -186.4 293.4 -168.1 302.6 -145.7C311.8 -123.3 311 -96.8 314.9 -71.9C318.8 -46.9 327.3 -23.5 335.9 0L0 0Z" fill="#274648"></path><path d="M0 -279.9C19.5 -271.8 38.9 -263.7 59.3 -260C79.8 -256.3 101.2 -257 120.8 -250.8C140.3 -244.6 158 -231.5 173 -217C188 -202.4 200.2 -186.5 214.4 -170.9C228.5 -155.4 244.5 -140.1 252.2 -121.4C259.9 -102.8 259.2 -80.7 262.4 -59.9C265.6 -39.1 272.8 -19.5 279.9 0L0 0Z" fill="#4a6263"></path><path d="M0 -223.9C15.6 -217.4 31.1 -210.9 47.5 -208C63.8 -205 81 -205.6 96.6 -200.6C112.3 -195.7 126.4 -185.2 138.4 -173.6C150.4 -162 160.2 -149.2 171.5 -136.8C182.8 -124.3 195.6 -112.1 201.7 -97.2C207.9 -82.2 207.4 -64.6 209.9 -47.9C212.5 -31.3 218.2 -15.6 223.9 0L0 0Z" fill="#6d7f80"></path><path d="M0 -167.9C11.7 -163.1 23.3 -158.2 35.6 -156C47.9 -153.8 60.7 -154.2 72.5 -150.5C84.2 -146.7 94.8 -138.9 103.8 -130.2C112.8 -121.5 120.1 -111.9 128.6 -102.6C137.1 -93.2 146.7 -84.1 151.3 -72.9C155.9 -61.7 155.5 -48.4 157.5 -35.9C159.4 -23.5 163.7 -11.7 167.9 0L0 0Z" fill="#929d9d"></path><path d="M0 -112C7.8 -108.7 15.6 -105.5 23.7 -104C31.9 -102.5 40.5 -102.8 48.3 -100.3C56.1 -97.8 63.2 -92.6 69.2 -86.8C75.2 -81 80.1 -74.6 85.7 -68.4C91.4 -62.1 97.8 -56 100.9 -48.6C103.9 -41.1 103.7 -32.3 105 -24C106.3 -15.6 109.1 -7.8 112 0L0 0Z" fill="#b8bcbc"></path><path d="M0 -56C3.9 -54.4 7.8 -52.7 11.9 -52C16 -51.3 20.2 -51.4 24.2 -50.2C28.1 -48.9 31.6 -46.3 34.6 -43.4C37.6 -40.5 40 -37.3 42.9 -34.2C45.7 -31.1 48.9 -28 50.4 -24.3C52 -20.6 51.8 -16.1 52.5 -12C53.1 -7.8 54.6 -3.9 56 0L0 0Z" fill="#cccccc"></path></g></svg>